<svg width="511" height="509" viewBox="0 0 511 509" fill="none" xmlns="http://www.w3.org/2000/svg">
<path fill-rule="evenodd" clip-rule="evenodd" d="M239.401 0.229365C190.467 4.45936 151.905 17.5104 114.128 42.6284C70.6021 71.5694 37.2392 112.523 17.8132 160.857C9.91216 180.518 4.63316 201.191 1.27116 225.639C-0.628843 239.454 -0.349843 274.261 1.78016 289.139C9.80816 345.217 33.0802 393.314 71.3982 433.023C108.681 471.658 155.453 496.905 208.651 507.112L215.401 508.407V419.023V329.639H182.901H150.401V292.639V255.639H182.829H215.257L215.636 216.389C216.011 177.509 216.04 177.045 218.704 167.139C228.641 130.189 253.01 107.853 290.728 101.127C298.821 99.6844 304.204 99.4694 321.228 99.9094C338.635 100.359 363.568 102.616 368.151 104.156C369.116 104.48 369.401 111.747 369.401 135.975V167.375L348.151 167.892C330.349 168.325 325.846 168.746 320.396 170.488C312.362 173.057 306.496 177.27 302.451 183.377C296.598 192.214 296.112 195.318 295.645 226.889L295.219 255.639H330.81C360.14 255.639 366.401 255.878 366.401 256.998C366.401 258.22 357.265 318.47 355.879 326.389L355.31 329.639H325.356H295.401V419.019V508.399L303.151 506.979C353.295 497.794 402.397 471.231 438.953 433.511C477.451 393.788 500.93 345.418 509.032 289.139C511.404 272.66 511.404 238.618 509.032 222.139C500.988 166.26 477.902 118.326 440.093 78.9964C399.056 36.3094 348.476 10.5154 289.401 2.14836C278.976 0.671365 248.025 -0.516635 239.401 0.229365Z" fill="#1877F2"/>
</svg>
