<svg width="512" height="512" viewBox="0 0 512 512" fill="none" xmlns="http://www.w3.org/2000/svg">
<path fill-rule="evenodd" clip-rule="evenodd" d="M232.742 1.02398C202.247 3.91798 168.14 13.642 141.742 26.969C99.1224 48.485 61.9604 82.817 37.1554 123.591C28.3164 138.12 24.0424 146.759 17.4394 163.445C-11.8616 237.478 -3.93156 322.553 38.9034 393.746C68.4134 442.791 115.215 482.75 166.235 502.462C175.573 506.07 180.833 507.797 193.992 511.577C195.639 512.05 195.742 509.584 195.742 469.647V427.214L191.492 428.036C173.848 431.449 151.928 424.77 139.116 412.077C135.803 408.794 130.877 402.809 128.17 398.777C125.462 394.744 121.221 389.241 118.745 386.548C114.191 381.595 106.119 376.973 101.992 376.955C100.755 376.949 99.7214 376.383 99.6964 375.695C99.6714 375.008 99.0874 368.258 98.3984 360.695L97.1454 346.945H101.733C107.709 346.945 116.453 349.259 123.009 352.576C134.422 358.35 142.773 366.556 153.526 382.561C158.09 389.356 161.978 392.983 168.126 396.184C173.083 398.765 184.647 399.199 191.945 397.078C196.531 395.745 196.676 395.581 197.728 390.513C199.161 383.611 203.501 374.619 209.142 366.867C211.672 363.39 213.742 360.251 213.742 359.892C213.742 359.532 209.58 358.46 204.492 357.508C193.615 355.473 173.827 349.021 165.273 344.721C143.258 333.655 127.131 318.217 116.351 297.891C101.924 270.688 99.9674 237.214 110.976 205.945C114.895 194.813 117.801 189.138 124.512 179.513L130.042 171.582L128.333 164.513C124.47 148.532 125.249 128.941 130.394 112.653C132.774 105.118 132.974 104.835 135.556 105.339C137.033 105.628 140.942 106.166 144.242 106.535C155.139 107.752 167.014 112.779 186.953 124.614C199.418 132.014 198.007 131.846 215.742 128.024C243.712 121.997 275.142 122.768 306.391 130.248L312.54 131.72L321.891 126.202C344.348 112.949 357.993 107.542 373.956 105.574L378.67 104.993L381.118 112.743C386.218 128.887 387.002 148.48 383.186 164.445L381.513 171.445L387.217 180.445C402.819 205.064 408.035 221.351 408.035 245.445C408.035 288.759 385.477 324.983 346.211 344.721C337.657 349.021 317.869 355.473 306.992 357.508C301.905 358.46 297.742 359.52 297.742 359.863C297.742 360.207 300.052 363.628 302.876 367.466C305.699 371.305 309.09 376.769 310.41 379.61C315.448 390.449 315.706 394.119 315.725 455.262C315.741 508.894 315.84 512.052 317.492 511.577C330.651 507.797 335.911 506.07 345.249 502.462C403.399 479.995 453.9 433.086 482.973 374.531C516.762 306.479 520.772 230.939 494.162 163.734C487.44 146.756 483.197 138.168 474.329 123.591C453.004 88.538 423.149 58.683 388.096 37.358C373.556 28.513 364.932 24.247 348.159 17.606C312.284 3.40198 270.678 -2.57602 232.742 1.02398Z" fill="black"/>
</svg>
